PathFileType	4	(X/Y/Z)	C:\Users\Basilio\Documents\Thesis Gigler\squatting_fais\c3dfiles\077\SLS_front_pre4\markers_experimental.trc
DataRate	CameraRate	NumFrames	NumMarkers	Units	OrigDataRate	OrigDataStartFrame	OrigNumFrames
200.000000	200.000000	4	60	mm	200.000000	396	1586
Frame#	Time	FHD			RBHD			C7			T10			CLAV			LSHO			LUUPA			LMUPA			LDUPA			LLEP			LMEP			LRAD			LUL			LRFIN			RSHO			RUPA1			RMUPA			RDUPA			RLEP			RMEP			RRAD			RUL			RUFIN			LASI			RASI			USACR			LSACR			RSACR			LTHI1			LTHI2			LTHI3			LTHI4			LLFC			LMFC			LTIB1			LTIB2			LTIB3			LTIB4			LLMAL			LHEE			LMT1			LMT2			LMT5			RTHI			RTHI2			RTHI3			RTHI4			RLFC			RMFC			RTIB1			RTIB2			RTIB3			RTIB4			RLMAL			RMMAL			RHEE			RMT1			RMT2			RMT5			LBHD			
		X1	Y1	Z1	X2	Y2	Z2	X3	Y3	Z3	X4	Y4	Z4	X5	Y5	Z5	X6	Y6	Z6	X7	Y7	Z7	X8	Y8	Z8	X9	Y9	Z9	X10	Y10	Z10	X11	Y11	Z11	X12	Y12	Z12	X13	Y13	Z13	X14	Y14	Z14	X15	Y15	Z15	X16	Y16	Z16	X17	Y17	Z17	X18	Y18	Z18	X19	Y19	Z19	X20	Y20	Z20	X21	Y21	Z21	X22	Y22	Z22	X23	Y23	Z23	X24	Y24	Z24	X25	Y25	Z25	X26	Y26	Z26	X27	Y27	Z27	X28	Y28	Z28	X29	Y29	Z29	X30	Y30	Z30	X31	Y31	Z31	X32	Y32	Z32	X33	Y33	Z33	X34	Y34	Z34	X35	Y35	Z35	X36	Y36	Z36	X37	Y37	Z37	X38	Y38	Z38	X39	Y39	Z39	X40	Y40	Z40	X41	Y41	Z41	X42	Y42	Z42	X43	Y43	Z43	X44	Y44	Z44	X45	Y45	Z45	X46	Y46	Z46	X47	Y47	Z47	X48	Y48	Z48	X49	Y49	Z49	X50	Y50	Z50	X51	Y51	Z51	X52	Y52	Z52	X53	Y53	Z53	X54	Y54	Z54	X55	Y55	Z55	X56	Y56	Z56	X57	Y57	Z57	X58	Y58	Z58	X59	Y59	Z59	X60	Y60	Z60	

397	1.98	-348.5046997070313	1861.575805664063	-1001.530822753906	-483.742645263672	1734.46337890625	-927.9722900390627	-512.0178222656251	1591.508422851563	-1018.772583007813	-473.675506591797	1255.18310546875	-1016.516784667969	-343.3608703613282	1566.107666015625	-1014.229736328125	-366.0660095214844	1600.310180664063	-1190.2138671875	-192.605941772461	1540.029174804688	-1295.175537109375	-161.4889373779297	1569.9423828125	-1269.338623046875	-124.3461227416992	1533.760375976563	-1301.365600585938	-59.34560775756837	1539.052368164063	-1297.923706054688	-57.81393432617189	1470.403198242188	-1266.1513671875	235.196762084961	1550.500854492188	-1193.457275390625	239.4962463378907	1557.844482421875	-1272.391235351563	332.7551574707032	1574.159301757813	-1202.827270507813	-359.9259033203126	1591.1728515625	-845.1319580078127	-197.5759887695313	1536.124877929688	-740.2090454101564	-169.9806823730469	1565.935424804688	-768.1900024414065	-127.7200164794922	1533.466430664063	-737.9684448242189	-62.22503662109376	1538.6298828125	-746.6565551757814	-60.63527679443361	1471.103149414063	-784.7702636718752	223.0655822753907	1553.6044921875	-834.9835205078127	232.9765930175782	1561.518432617188	-757.5345458984376	320.9126892089844	1571.367309570313	-833.535339355469	-256.6345520019532	1068.488159179688	-1135.853759765625	-278.4673461914063	1105.847900390625	-851.8997192382815	-471.716033935547	1154.816040039063	-1011.717651367188	-473.0518798828126	1123.048217773438	-1038.986328125	-480.2907714843751	1123.036376953125	-983.702087402344	-316.2271118164063	849.1276855468752	-1175.72216796875	-285.0291442871094	770.6992187500002	-1168.056396484375	-237.1057586669922	774.8394775390627	-1164.283569335938	-313.3999633789063	719.6686401367189	-1151.185302734375	-281.2147827148438	573.5054321289064	-1120.813354492188	-278.1573181152344	557.9914550781251	-987.451354980469	-271.2153015136719	352.0345764160157	-1038.838500976563	-300.0250549316407	305.5679626464844	-1109.894653320313	-272.6193847656251	304.0756835937501	-1072.554931640625	-290.7253417968751	227.2969055175782	-1036.965209960938	-358.6614990234376	111.9573822021485	-1082.796875	-418.6037597656251	83.46903228759767	-1032.351806640625	-210.4597625732422	56.99984741210939	-1001.843444824219	-204.5200805664063	59.228084564209	-1044.654541015625	-335.1759948730469	126.1111221313477	-996.4324340820315	-206.3930358886719	802.343933105469	-765.0428466796876	-144.1010894775391	776.4794921875002	-758.2125244140626	-115.4400863647461	794.616149902344	-760.8705444335939	-126.4105682373047	696.0987548828126	-767.2754516601564	-105.7882690429688	639.0912475585939	-764.9018554687501	-64.35296630859376	629.5410156250001	-887.2058105468752	-67.39125823974611	500.9631347656251	-783.7130126953127	-143.4358673095703	429.4915771484376	-758.8146362304689	-100.7577285766602	420.569549560547	-777.0030517578127	-100.4614791870117	378.6642761230469	-819.584167480469	-196.1579132080079	210.4719848632813	-788.6789550781252	-160.9028930664063	215.7588653564454	-874.5067138671877	-258.6012268066407	182.2012329101563	-853.4197387695315	-42.4906120300293	134.2715911865235	-821.331481933594	-48.87982177734376	137.1412963867188	-782.636169433594	-75.92432403564455	119.2720108032227	-738.2848510742189	-479.2480773925782	1746.004150390625	-1074.355590820313	
398	1.985	-348.7332458496094	1861.804931640625	-1002.826477050781	-483.9328002929689	1734.500854492188	-928.8762817382815	-512.1141357421876	1591.640991210938	-1020.044067382813	-474.1441345214845	1255.303466796875	-1017.58544921875	-343.7122802734376	1566.15966796875	-1015.386962890625	-366.1824645996094	1600.441040039063	-1191.345336914063	-192.9506225585938	1540.256103515625	-1295.921142578125	-161.9343566894532	1570.360229492188	-1270.26953125	-124.597900390625	1534.003784179688	-1302.095581054688	-59.66366195678712	1539.416381835938	-1298.547119140625	-57.95817947387697	1470.789916992188	-1267.019775390625	235.1791076660157	1551.180786132813	-1193.836303710938	239.3444824218751	1558.47265625	-1272.836181640625	331.8365478515626	1575.173583984375	-1203.333740234375	-360.3669128417969	1591.423950195313	-846.2381591796877	-198.0724487304688	1536.17041015625	-740.8831176757814	-170.4482879638672	1566.31396484375	-768.9223632812502	-128.157455444336	1534.22607421875	-739.2579345703126	-62.55606079101564	1538.944458007813	-747.0769042968751	-60.83031082153322	1471.110595703125	-785.1403808593752	222.4883117675782	1554.000244140625	-835.7600097656252	232.2457580566407	1561.351440429688	-758.4122314453126	320.4890441894532	1571.444946289063	-834.0715332031252	-256.5687866210938	1068.915771484375	-1136.538452148438	-279.1640014648438	1106.453857421875	-853.212829589844	-472.021453857422	1154.941528320313	-1012.797546386719	-473.5282592773439	1123.216918945313	-1040.073608398438	-481.1221618652345	1122.657592773438	-984.868347167969	-316.2705993652344	849.0300292968752	-1176.473510742188	-285.2012939453126	770.5247802734377	-1168.489501953125	-237.422103881836	774.915710449219	-1165.257568359375	-313.4955444335938	719.6545410156251	-1151.737060546875	-281.8456420898438	573.6648559570314	-1121.617553710938	-278.1537780761719	558.1220092773439	-988.2132568359377	-271.1109313964844	352.3889465332032	-1039.4365234375	-300.2454528808594	305.4993286132813	-1110.509033203125	-272.6259155273438	304.0138244628907	-1073.039306640625	-290.5480957031251	227.5443267822266	-1037.454711914063	-359.4455261230469	112.4266967773438	-1082.987182617188	-418.5889587402345	83.56017303466798	-1032.365844726563	-210.4869232177735	57.03697204589845	-1001.951049804688	-204.3521728515626	57.41121673583986	-1044.167724609375	-335.0027465820313	126.1837615966797	-996.6807250976565	-204.8253021240235	803.7779541015627	-765.7546386718751	-142.237045288086	778.5439453125002	-758.9937133789064	-114.0261917114258	796.696228027344	-761.8693847656251	-124.0165481567383	698.2257690429689	-767.9964599609376	-102.7748184204102	641.0627441406251	-765.6431274414064	-60.73508834838869	632.2778930664064	-887.9317016601565	-61.60301208496095	503.3437805175782	-784.408630371094	-136.5091094970703	430.3881225585939	-759.8272094726564	-93.41658782958986	422.3888549804689	-777.6860351562502	-92.56552886962892	380.6800842285157	-820.351745605469	-184.9820404052735	210.5939025878907	-789.3668212890627	-149.8996887207032	216.5128326416016	-875.0393066406252	-246.7711029052735	180.6587371826172	-854.113220214844	-29.5119857788086	138.1175842285157	-821.7041015625002	-35.99108886718751	140.7935333251953	-783.2327880859377	-62.50147247314455	122.6273040771485	-738.7255249023439	-479.4560852050782	1746.169677734375	-1075.388549804688	
399	1.99	-348.7647705078126	1861.936401367188	-1003.773559570313	-484.0897827148439	1734.718505859375	-930.2542114257815	-512.4215698242189	1591.86328125	-1021.21875	-474.3335876464845	1255.414306640625	-1018.692932128906	-343.8883056640626	1566.34912109375	-1016.417541503906	-366.3081359863282	1600.722778320313	-1192.3974609375	-192.9392547607422	1540.7080078125	-1296.968383789063	-162.0839080810547	1570.670776367188	-1271.283813476563	-124.5020217895508	1534.206298828125	-1302.972412109375	-60.11405181884767	1540.05419921875	-1299.50341796875	-57.9276695251465	1471.403198242188	-1267.8681640625	235.1147766113282	1551.79638671875	-1194.2587890625	239.3726348876954	1558.982055664063	-1273.273803710938	332.0909118652344	1575.651611328125	-1203.586059570313	-360.5339660644532	1591.421752929688	-847.2019653320315	-198.8598785400391	1536.197265625	-742.4427490234376	-171.0284576416016	1566.563110351563	-769.9199218750002	-128.6871490478516	1534.169677734375	-739.7098388671876	-63.23181152343751	1539.1650390625	-747.7337036132814	-61.68887329101564	1471.22119140625	-786.1661376953127	222.1147766113282	1554.156616210938	-836.1848144531252	232.0655212402344	1561.962280273438	-758.5933227539064	320.0268859863282	1571.456298828125	-834.500427246094	-256.5669555664063	1069.367919921875	-1137.293212890625	-279.6160888671876	1107.111328125	-854.0113525390627	-472.2545471191407	1154.79296875	-1014.08056640625	-473.7380371093751	1122.853393554688	-1041.204223632813	-481.3291625976564	1122.674682617188	-986.0405273437502	-316.4136047363282	849.137145996094	-1177.133544921875	-286.5011901855469	771.1584472656252	-1169.560302734375	-237.7740325927735	774.8900146484377	-1166.074829101563	-313.8242492675782	719.7954101562501	-1152.536376953125	-282.4674987792969	573.7031250000001	-1122.319946289063	-278.2481689453126	558.2059326171876	-988.9620361328127	-271.6511230468751	351.8127441406251	-1039.816040039063	-300.7519531250001	305.5249023437501	-1111.022216796875	-272.8582153320313	304.0553588867188	-1073.583374023438	-290.6344909667969	227.8047637939454	-1037.941528320313	-359.5763244628907	112.2442932128907	-1083.166870117188	-418.5843811035157	83.64315795898439	-1032.372436523438	-210.2900085449219	57.26085281372072	-1002.062683105469	-204.1067504882813	57.21297073364259	-1044.157104492188	-334.8699035644532	126.3223037719727	-996.8804931640627	-203.3125000000001	805.1812133789065	-766.4990844726564	-140.6065216064453	780.4934692382815	-759.7884521484376	-112.3815307617188	798.8950195312502	-762.6545410156251	-121.4111633300782	700.4326171875001	-768.5936279296877	-99.84217834472659	643.0114746093751	-766.4775390625001	-57.58618545532228	634.8547363281251	-888.794372558594	-56.2313575744629	505.8543395996095	-785.2429809570315	-129.5156555175782	431.9492187500001	-759.8975219726564	-86.53018951416017	424.6149902343751	-778.385437011719	-84.68703460693361	382.7366638183594	-820.7904052734377	-173.6009063720703	210.5462341308594	-789.927673339844	-138.8264617919922	217.2027435302735	-875.5902099609377	-234.6177215576172	179.092758178711	-854.5596313476565	-16.33105087280274	142.321517944336	-822.024353027344	-22.93999862670899	144.5880279541016	-783.6743774414065	-49.05776977539064	125.7946319580078	-738.9120483398439	-479.1646728515626	1744.423217773438	-1076.251586914063	
400	1.995	-348.7477722167969	1861.2314453125	-1004.796447753906	-484.462860107422	1733.695190429688	-930.8892211914065	-512.5781250000001	1591.982055664063	-1022.43359375	-474.4791564941407	1255.630126953125	-1019.508544921875	-344.2248535156251	1566.493408203125	-1017.341064453125	-366.1778564453126	1600.955932617188	-1193.2509765625	-193.0288391113282	1540.972778320313	-1297.720092773438	-162.167953491211	1570.940795898438	-1272.249145507813	-124.6303939819336	1534.503540039063	-1303.7890625	-59.9269256591797	1540.47021484375	-1300.266967773438	-57.89550781250001	1471.969360351563	-1268.354370117188	235.1709289550782	1552.37548828125	-1194.614135742188	239.5067443847657	1559.590087890625	-1273.5400390625	333.2569885253907	1576.12109375	-1203.43408203125	-360.9590148925782	1591.587524414063	-848.2042236328127	-199.2761230468751	1536.548461914063	-743.0871582031251	-171.3738555908203	1566.740112304688	-770.6880493164065	-129.1923828125	1534.626586914063	-740.2155151367189	-63.77887344360353	1539.219360351563	-748.7531127929689	-62.1598358154297	1471.64697265625	-786.849548339844	221.7398376464844	1553.28759765625	-836.5557861328127	231.4872589111329	1562.2978515625	-759.2487182617189	319.4020996093751	1571.52001953125	-835.2791137695315	-256.2369689941407	1069.8583984375	-1138.22119140625	-280.2036743164063	1107.725463867188	-855.0708618164065	-472.6275939941407	1154.490600585938	-1015.132385253906	-474.0475463867189	1122.754516601563	-1042.342895507813	-481.4862670898439	1122.595092773438	-987.1428222656252	-316.6533203125001	849.2844848632815	-1177.865966796875	-286.8741760253907	771.4880981445315	-1170.586547851563	-238.5859375000001	774.8569335937502	-1166.830688476563	-314.1350097656251	719.8231811523439	-1153.295776367188	-282.9546508789063	573.9211425781251	-1122.8984375	-278.2092285156251	558.4356079101564	-989.6199951171877	-271.7928161621094	351.9120788574219	-1040.3837890625	-301.1437988281251	305.6928100585938	-1111.404296875	-273.5537109375001	302.5274658203126	-1073.75390625	-290.6300354003907	227.918930053711	-1038.49658203125	-359.6521911621094	112.3307113647461	-1083.308715820313	-418.588348388672	83.68666839599611	-1032.393188476563	-210.3425292968751	57.23945999145509	-1002.156188964844	-204.1074676513672	57.15671157836915	-1044.35546875	-334.7836608886719	126.4136505126953	-997.1453247070315	-201.7047119140626	806.5952148437502	-767.0776367187501	-138.676742553711	782.420349121094	-760.4520874023439	-110.6891708374024	801.0703125000002	-763.5021362304689	-119.0157852172852	702.4865112304689	-769.3869628906252	-96.94251251220706	644.9124145507814	-767.2686767578126	-53.6754493713379	637.3600463867189	-889.221130371094	-50.76209640502931	508.6208496093751	-785.779235839844	-122.3262023925782	433.0677490234376	-761.0568847656251	-79.39085388183595	426.9275817871095	-778.845397949219	-76.67076873779298	384.904754638672	-821.4564208984377	-161.7942810058594	210.6295013427735	-790.235534667969	-126.7665100097657	218.0438385009766	-875.880310058594	-222.0841369628907	177.6271514892578	-855.0040283203127	-3.122936010360719	146.3934326171875	-822.291198730469	-9.680282592773439	148.7987670898438	-783.749938964844	-35.28493881225587	129.3282928466797	-739.1613769531251	-479.379608154297	1744.57861328125	-1077.30029296875	
